<svg width="56" height="66" viewBox="0 0 56 66" fill="none" xmlns="http://www.w3.org/2000/svg">
<path d="M14.4612 27.5025L13.3568 27.4896C9.89733 27.4489 6.64233 26.089 4.19031 23.6587C1.74045 21.2262 0.358367 17.9894 0.300242 14.5446L0.28302 13.4442L1.3874 13.457C4.84691 13.4978 8.10191 14.8577 10.5539 17.288C13.0059 19.7183 14.388 22.9551 14.444 26.4021L14.4612 27.5025ZM2.52837 15.6707C2.82545 18.116 3.93198 20.3811 5.70587 22.1422C7.48191 23.9032 9.75955 24.9929 12.2159 25.2781C11.9188 22.8307 10.8123 20.5677 9.03837 18.8067C7.26448 17.0456 4.98469 15.9538 2.52837 15.6707Z" fill="#FFDD24"/>
<path d="M13.1502 27.5025L13.1696 26.4021C13.2277 22.9551 14.6098 19.7183 17.0597 17.288C19.5117 14.8577 22.7667 13.4956 26.2262 13.457L27.3306 13.4442L27.3112 14.5446C27.2531 17.9916 25.8731 21.2284 23.4211 23.6587C20.9691 26.089 17.7141 27.451 14.2546 27.4896L13.1502 27.5025ZM25.0852 15.6707C22.6289 15.956 20.3513 17.0456 18.5752 18.8067C16.7992 20.5677 15.6948 22.8307 15.3977 25.2781C17.854 24.9929 20.1338 23.9032 21.9077 22.1422C23.6816 20.3811 24.786 18.116 25.0852 15.6707Z" fill="#FFDD24"/>
<path d="M42.85 27.5025L41.7456 27.4896C38.2861 27.4489 35.0311 26.089 32.5791 23.6587C30.127 21.2284 28.745 17.9916 28.689 14.5446L28.6696 13.4442L29.774 13.457C33.2335 13.4978 36.4885 14.8577 38.9405 17.288C41.3925 19.7183 42.7746 22.9551 42.8306 26.4021L42.85 27.5025ZM30.915 15.6707C31.212 18.116 32.3186 20.3811 34.0925 22.1422C35.8685 23.9032 38.1461 24.9929 40.6025 25.2781C40.3054 22.8307 39.1989 20.5677 37.4228 18.8067C35.6468 17.0456 33.3713 15.9538 30.915 15.6707Z" fill="#FFDD24"/>
<path d="M41.5389 27.5025L41.5583 26.4021C41.6164 22.9551 42.9985 19.7183 45.4483 17.288C47.9003 14.8577 51.1553 13.4956 54.6149 13.457L55.7192 13.4442L55.6999 14.5446C55.6417 17.9916 54.2597 21.2284 51.8098 23.6587C49.3578 26.089 46.1028 27.451 42.6433 27.4896L41.5389 27.5025ZM53.4717 15.6707C51.0154 15.956 48.7378 17.0456 46.9617 18.8067C45.1857 20.5677 44.0813 22.8307 43.7821 25.2781C46.2384 24.9929 48.5182 23.9032 50.2921 22.1422C52.066 20.3811 53.1747 18.116 53.4717 15.6707Z" fill="#FFDD24"/>
<path d="M14.4612 14.9757L13.3569 14.9628C9.89734 14.922 6.64234 13.5621 4.19033 11.1318C1.74047 8.69939 0.358384 5.46258 0.300259 2.01556L0.280884 0.915176L1.38526 0.928046C4.84477 0.968801 8.09977 2.32873 10.5518 4.75902C13.0038 7.18931 14.3859 10.4261 14.4419 13.8731L14.4612 14.9757ZM2.52838 3.14169C2.82547 5.58699 3.93199 7.85211 5.70588 9.61316C7.48192 11.3742 9.75956 12.4639 12.2159 12.7492C11.9188 10.3017 10.8123 8.03873 9.03838 6.27768C7.26449 4.51663 4.9847 3.42697 2.52838 3.14169Z" fill="#FFDD24"/>
<path d="M13.1502 14.9758L13.1696 13.8755C13.2277 10.4284 14.6098 7.19163 17.0597 4.76135C19.5117 2.33106 22.7667 0.968983 26.2262 0.930373L27.3306 0.917503L27.3112 2.01789C27.2531 5.46491 25.8731 8.70172 23.4211 11.132C20.9691 13.5623 17.7141 14.9244 14.2546 14.963L13.1502 14.9758ZM25.0852 3.14187C22.6289 3.42716 20.3513 4.51682 18.5752 6.27786C16.7992 8.03891 15.6926 10.3019 15.3956 12.7493C17.8519 12.4641 20.1317 11.3744 21.9056 9.61334C23.6816 7.85444 24.786 5.58932 25.0852 3.14187Z" fill="#FFDD24"/>
<path d="M42.85 14.9758L41.7456 14.963C38.2861 14.9222 35.0311 13.5623 32.5791 11.132C30.127 8.70172 28.745 5.46491 28.689 2.01789L28.6696 0.917503L29.774 0.930373C33.2335 0.971128 36.4885 2.33106 38.9405 4.76135C41.3925 7.19163 42.7746 10.4284 42.8306 13.8755L42.85 14.9758ZM30.915 3.14187C31.212 5.58717 32.3186 7.85229 34.0925 9.61334C35.8685 11.3744 38.1461 12.4641 40.6025 12.7493C40.3054 10.3019 39.1989 8.03891 37.4228 6.27786C35.6468 4.51682 33.3713 3.42716 30.915 3.14187Z" fill="#FFDD24"/>
<path d="M41.5389 14.9758L41.5583 13.8755C41.6164 10.4284 42.9985 7.19163 45.4483 4.76135C47.9003 2.33106 51.1553 0.968983 54.6149 0.930373L55.7192 0.917503L55.6999 2.01789C55.6417 5.46491 54.2597 8.70172 51.8098 11.132C49.3578 13.5623 46.1028 14.9244 42.6433 14.963L41.5389 14.9758ZM53.4717 3.14187C51.0154 3.42716 48.7378 4.51682 46.9617 6.27786C45.1857 8.03891 44.0813 10.3019 43.7821 12.7493C46.2384 12.4641 48.5182 11.3744 50.2921 9.61334C52.066 7.85229 53.1747 5.58932 53.4717 3.14187Z" fill="#FFDD24"/>
<path d="M14.4612 40.0294L13.3569 40.0165C9.89734 39.9758 6.64234 38.6158 4.19033 36.1834C1.73831 33.7531 0.356231 30.5163 0.300259 27.0693L0.280884 25.9689L1.38526 25.9818C4.84477 26.0225 8.09977 27.3825 10.5518 29.8127C13.0038 32.243 14.3859 35.4798 14.4419 38.9269L14.4612 40.0294ZM2.52838 28.1976C2.82547 30.6429 3.93199 32.908 5.70588 34.669C7.48192 36.4301 9.75956 37.5197 12.2159 37.805C11.9188 35.3597 10.8123 33.0946 9.03838 31.3335C7.26234 29.5725 4.9847 28.4807 2.52838 28.1976Z" fill="#FFDD24"/>
<path d="M13.1502 40.0296L13.1696 38.9292C13.2277 35.4822 14.6098 32.2454 17.0597 29.8151C19.5117 27.3848 22.7667 26.0227 26.2262 25.9841L27.3306 25.9712L27.3112 27.0716C27.2531 30.5186 25.8731 33.7555 23.4211 36.1857C20.9691 38.616 17.7141 39.9781 14.2546 40.0189L13.1502 40.0296ZM18.5752 31.3316C16.7992 33.0926 15.6948 35.3578 15.3977 37.8031C17.854 37.5178 20.1338 36.4281 21.9077 34.6671C23.6838 32.906 24.7881 30.6431 25.0852 28.1956C22.6267 28.4809 20.3491 29.5727 18.5752 31.3316Z" fill="#FFDD24"/>
<path d="M42.85 40.0294L41.7456 40.0165C38.2861 39.9758 35.0311 38.6158 32.5791 36.1834C30.127 33.7531 28.745 30.5163 28.689 27.0693L28.6696 25.9689L29.774 25.9818C33.2335 26.0225 36.4885 27.3825 38.9405 29.8127C41.3925 32.243 42.7746 35.4798 42.8306 38.9269L42.85 40.0294ZM30.915 28.1976C31.212 30.6429 32.3186 32.908 34.0925 34.669C35.8664 36.4301 38.1461 37.5197 40.6025 37.805C40.3054 35.3597 39.1989 33.0946 37.4228 31.3335C35.6511 29.5725 33.3713 28.4807 30.915 28.1976Z" fill="#FFDD24"/>
<path d="M41.5389 40.0296L41.5583 38.9292C41.6164 35.4822 42.9985 32.2454 45.4483 29.8151C47.9003 27.3848 51.1553 26.0227 54.6149 25.9841L55.7192 25.9712L55.6999 27.0716C55.6417 30.5186 54.2597 33.7555 51.8098 36.1857C49.3578 38.616 46.1028 39.9781 42.6433 40.0189L41.5389 40.0296ZM46.9617 31.3316C45.1857 33.0926 44.0813 35.3578 43.7821 37.8031C46.2384 37.5178 48.5182 36.4281 50.2921 34.6671C52.0681 32.906 53.1725 30.6431 53.4696 28.1956C51.0154 28.4809 48.7378 29.5727 46.9617 31.3316Z" fill="#FFDD24"/>
<path d="M14.4612 52.5561L13.3569 52.5432C9.89734 52.5024 6.64234 51.1425 4.19033 48.7101C1.73831 46.2798 0.356231 43.043 0.300259 39.5959L0.280884 38.4956L1.38526 38.5084C4.84477 38.5492 8.09977 39.9091 10.5518 42.3394C13.0038 44.7697 14.3859 48.0065 14.4419 51.4535L14.4612 52.5561ZM2.52838 40.7242C2.82547 43.1695 3.93199 45.4346 5.70588 47.1957C7.48192 48.9567 9.75956 50.0464 12.2159 50.3317C11.9188 47.8864 10.8123 45.6213 9.03838 43.8602C7.26234 42.0992 4.9847 41.0095 2.52838 40.7242Z" fill="#FFDD24"/>
<path d="M13.1502 52.5562L13.1696 51.4559C13.2277 48.0088 14.6098 44.772 17.0597 42.3417C19.5117 39.9115 22.7667 38.5494 26.2262 38.5108L27.3306 38.4979L27.3112 39.5983C27.2531 43.0453 25.8731 46.2821 23.4211 48.7124C20.9691 51.1427 17.7141 52.5048 14.2546 52.5455L13.1502 52.5562ZM18.5752 43.8583C16.7992 45.6193 15.6948 47.8844 15.3977 50.3297C17.854 50.0444 20.1338 48.9548 21.9077 47.1937C23.6838 45.4327 24.7881 43.1697 25.0852 40.7223C22.6267 41.0097 20.3491 42.0994 18.5752 43.8583Z" fill="#FFDD24"/>
<path d="M42.85 52.5561L41.7456 52.5432C38.2861 52.5024 35.0311 51.1425 32.5791 48.7101C30.127 46.2798 28.745 43.043 28.689 39.5959L28.6696 38.4956L29.774 38.5084C33.2335 38.5492 36.4885 39.9091 38.9405 42.3394C41.3925 44.7697 42.7746 48.0065 42.8306 51.4535L42.85 52.5561ZM30.915 40.7242C31.212 43.1695 32.3186 45.4346 34.0925 47.1957C35.8664 48.9567 38.1461 50.0464 40.6025 50.3317C40.3054 47.8864 39.1989 45.6213 37.4228 43.8602C35.6511 42.0992 33.3713 41.0095 30.915 40.7242Z" fill="#FFDD24"/>
<path d="M41.5389 52.5562L41.5583 51.4559C41.6164 48.0088 42.9985 44.772 45.4483 42.3417C47.9003 39.9115 51.1553 38.5494 54.6149 38.5108L55.7192 38.4979L55.6999 39.5983C55.6417 43.0453 54.2597 46.2821 51.8098 48.7124C49.3578 51.1427 46.1028 52.5048 42.6433 52.5455L41.5389 52.5562ZM46.9617 43.8583C45.1857 45.6193 44.0813 47.8844 43.7821 50.3297C46.2384 50.0444 48.5182 48.9548 50.2921 47.1937C52.0681 45.4327 53.1725 43.1697 53.4696 40.7223C51.0154 41.0097 48.7378 42.0994 46.9617 43.8583Z" fill="#FFDD24"/>
<path d="M14.4612 65.0848L13.3569 65.0719C9.89734 65.0311 6.64234 63.6712 4.19033 61.2388C1.73831 58.8085 0.356231 55.5717 0.300259 52.1247L0.280884 51.0243L1.38526 51.0371C4.84477 51.0779 8.09977 52.4378 10.5518 54.8681C13.0038 57.2984 14.3859 60.5352 14.4419 63.9822L14.4612 65.0848ZM2.52838 53.2508C2.82547 55.6982 3.93199 57.9612 5.70588 59.7223C7.48192 61.4833 9.75956 62.573 12.2159 62.8583C11.9188 60.4108 10.8123 58.1478 9.03838 56.3868C7.26234 54.6257 4.9847 53.5361 2.52838 53.2508Z" fill="#FFDD24"/>
<path d="M13.1502 65.0849L13.1696 63.9846C13.2277 60.5375 14.6098 57.3007 17.0597 54.8705C19.5117 52.4402 22.7667 51.0781 26.2262 51.0395L27.3306 51.0266L27.3112 52.127C27.2531 55.574 25.8731 58.8108 23.4211 61.2411C20.9691 63.6714 17.7141 65.0335 14.2546 65.0742L13.1502 65.0849ZM25.0852 53.251C22.6289 53.5363 20.3491 54.6259 18.5752 56.387C16.7992 58.148 15.6948 60.411 15.3977 62.8584C17.854 62.5731 20.1338 61.4835 21.9077 59.7224C23.6816 57.9614 24.786 55.6984 25.0852 53.251Z" fill="#FFDD24"/>
<path d="M42.85 65.0848L41.7456 65.0719C38.2861 65.0311 35.0311 63.6712 32.5791 61.2388C30.127 58.8085 28.745 55.5717 28.689 52.1247L28.6696 51.0243L29.774 51.0371C33.2335 51.0779 36.4885 52.4378 38.9405 54.8681C41.3925 57.2984 42.7746 60.5352 42.8306 63.9822L42.85 65.0848ZM30.915 53.2508C31.212 55.6982 32.3186 57.9612 34.0925 59.7223C35.8685 61.4833 38.1461 62.573 40.6025 62.8583C40.3054 60.4108 39.1989 58.1478 37.4228 56.3868C35.6511 54.6257 33.3734 53.5361 30.915 53.2508Z" fill="#FFDD24"/>
<path d="M41.5389 65.0849L41.5583 63.9846C41.6164 60.5375 42.9985 57.3007 45.4483 54.8705C47.9003 52.4402 51.1553 51.0781 54.6149 51.0395L55.7192 51.0266L55.6999 52.127C55.6417 55.574 54.2597 58.8108 51.8098 61.2411C49.3578 63.6714 46.1028 65.0335 42.6433 65.0742L41.5389 65.0849ZM53.4717 53.251C51.0154 53.5363 48.7356 54.6259 46.9617 56.387C45.1857 58.148 44.0813 60.411 43.7821 62.8584C46.2384 62.5731 48.5182 61.4835 50.2921 59.7224C52.0703 57.9614 53.1747 55.6984 53.4717 53.251Z" fill="#FFDD24"/>
</svg>
